<mxfile host="app.diagrams.net" modified="2024-01-23T01:08:24.386Z" agent="Mozilla/5.0 (Macintosh; Intel Mac OS X 10_15_7) AppleWebKit/537.36 (KHTML, like Gecko) Chrome/120.0.0.0 Safari/537.36" etag="6ELmzP628JJRF3tkR4id" version="22.1.21" type="github">
  <diagram id="R2lEEEUBdFMjLlhIrx00" name="Page-1">
    <mxGraphModel dx="954" dy="550" grid="1" gridSize="10" guides="1" tooltips="1" connect="1" arrows="1" fold="1" page="1" pageScale="1" pageWidth="850" pageHeight="1100" math="0" shadow="0" extFonts="Permanent Marker^https://fonts.googleapis.com/css?family=Permanent+Marker">
      <root>
        <mxCell id="0" />
        <mxCell id="1" parent="0" />
        <mxCell id="p6_36A1Sb_aL8uz1Wc_A-1" value="employee" style="rounded=0;whiteSpace=wrap;html=1;" vertex="1" parent="1">
          <mxGeometry x="210" y="140" width="120" height="60" as="geometry" />
        </mxCell>
        <mxCell id="p6_36A1Sb_aL8uz1Wc_A-2" value="department" style="rounded=0;whiteSpace=wrap;html=1;" vertex="1" parent="1">
          <mxGeometry x="480" y="140" width="120" height="60" as="geometry" />
        </mxCell>
        <mxCell id="p6_36A1Sb_aL8uz1Wc_A-6" value="" style="edgeStyle=entityRelationEdgeStyle;fontSize=12;html=1;endArrow=ERoneToMany;startArrow=ERmandOne;rounded=0;exitX=0.442;exitY=1.017;exitDx=0;exitDy=0;exitPerimeter=0;entryX=0.5;entryY=0;entryDx=0;entryDy=0;" edge="1" parent="1" target="p6_36A1Sb_aL8uz1Wc_A-1">
          <mxGeometry width="100" height="100" relative="1" as="geometry">
            <mxPoint x="113.03999999999996" y="199.99999999999997" as="sourcePoint" />
            <mxPoint x="120" y="138.98" as="targetPoint" />
            <Array as="points">
              <mxPoint x="240" y="288.98" />
              <mxPoint x="160" y="100" />
              <mxPoint x="190" y="178.98" />
              <mxPoint x="250" y="268.98" />
            </Array>
          </mxGeometry>
        </mxCell>
      </root>
    </mxGraphModel>
  </diagram>
</mxfile>
